Coordinates
version=1
nRows=10
nColumns=27
inDegrees=yes

Units are S.I. units (second, meters, Newtons, ...)
If the header above contains a line with 'inDegrees', this indicates whether rotational values are in degrees (yes) or radians (no).

endheader
time	pelvis_rotation	pelvis_tilt	pelvis_list	pelvis_tx	pelvis_ty	pelvis_tz	hip_flexion_r	hip_adduction_r	hip_rotation_r	knee_angle_r	knee_rotation_r	knee_adduction_r	knee_angle_r_beta	ankle_angle_r	subtalar_angle_r	mtp_angle_r	hip_flexion_l	hip_adduction_l	hip_rotation_l	knee_angle_l	knee_rotation_l	knee_adduction_l	knee_angle_l_beta	ankle_angle_l	subtalar_angle_l	mtp_angle_l
      5.33500000	      6.17611824	    -32.43401150	      4.00650259	     -0.00883047	      0.66847866	     -1.17684511	     91.85592757	    -41.36064877	     -0.92885151	     72.97766061	      0.00000000	      9.52703264	      1.27370046	      6.40644518	      0.00000000	      0.00000000	     91.71872590	    -23.54230107	      2.59379986	     68.53561693	      0.00000000	     -9.71653520	      1.19617217	      5.29405255	      0.00000000	      0.00000000
      5.34000000	      5.90336169	    -32.47587972	      4.10517045	     -0.00833389	      0.66909135	     -1.17701867	     92.01012303	    -41.13987451	     -0.70526580	     72.90659538	      0.00000000	      9.73925046	      1.27246014	      6.35749982	      0.00000000	      0.00000000	     91.50543361	    -23.85871798	      2.17292538	     68.48490115	      0.00000000	     -9.84970332	      1.19528701	      5.37104935	      0.00000000	      0.00000000
      5.34500000	      5.76779685	    -32.36313651	      4.41151533	     -0.00774776	      0.66983326	     -1.17731048	     92.12990435	    -41.03002849	     -0.23798278	     72.81378395	      0.00000000	      9.73972727	      1.27084027	      6.27148385	      0.00000000	      0.00000000	     90.98940778	    -23.99732317	      1.61315143	     68.32228168	      0.00000000	     -9.85061898	      1.19244877	      5.41675843	      0.00000000	      0.00000000
      5.35000000	      5.71511742	    -32.27830099	      4.39929259	     -0.00719518	      0.67057135	     -1.17749568	     91.87245367	    -41.02042049	     -0.35126819	     72.66334882	      0.00000000	      9.74135673	      1.26821468	      6.23501182	      0.00000000	      0.00000000	     90.74862473	    -24.02831623	      1.53238977	     68.21602961	      0.00000000	     -9.85062516	      1.19059432	      5.43643180	      0.00000000	      0.00000000
      5.35500000	      5.62210524	    -32.19265336	      4.31562300	     -0.00663983	      0.67126940	     -1.17763153	     91.56010088	    -40.97063265	     -0.53446759	     72.50973876	      0.00000000	      9.74170787	      1.26553368	      6.21241716	      0.00000000	      0.00000000	     90.54944406	    -24.11147265	      1.50260910	     68.13366478	      0.00000000	     -9.85098856	      1.18915678	      5.43826309	      0.00000000	      0.00000000
      5.36000000	      5.77453601	    -32.07043528	      4.01918797	     -0.00606629	      0.67204387	     -1.17776454	     90.82213860	    -41.18767544	     -1.30350845	     72.28568359	      0.00000000	      9.74268988	      1.26162318	      6.20135958	      0.00000000	      0.00000000	     90.52063687	    -23.90819802	      1.94164325	     68.06018341	      0.00000000	     -9.85130248	      1.18787429	      5.48587017	      0.00000000	      0.00000000
      5.36500000	      5.59936374	    -31.96657900	      4.37331478	     -0.00550039	      0.67266410	     -1.17797888	     91.05954035	    -41.03267932	     -0.68817892	     72.24305917	      0.00000000	      9.74705232	      1.26087924	      6.15183975	      0.00000000	      0.00000000	     89.98433370	    -24.08911459	      1.30768063	     67.89906018	      0.00000000	     -9.85101194	      1.18506216	      5.46399423	      0.00000000	      0.00000000
      5.37000000	      5.26508906	    -31.95295465	      4.34367589	     -0.00516349	      0.67331212	     -1.17795700	     91.01347904	    -40.63695050	     -0.47982438	     72.08897873	      0.00000000	      9.52986461	      1.25819003	      6.10979957	      0.00000000	      0.00000000	     89.74232849	    -24.39171344	      1.10525623	     67.78119180	      0.00000000	     -9.72219090	      1.18300497	      5.42863475	      0.00000000	      0.00000000
      5.37500000	      5.61778999	    -31.75161591	      4.12899374	     -0.00429080	      0.67401732	     -1.17825476	     90.19624769	    -41.15061414	     -1.36337566	     71.91783820	      0.00000000	      9.75050188	      1.25520307	      6.09796057	      0.00000000	      0.00000000	     89.65876488	    -24.03231976	      1.51383830	     67.75205282	      0.00000000	     -9.85081801	      1.18249640	      5.53287015	      0.00000000	      0.00000000
      5.38000000	      5.16586170	    -31.78297524	      4.21367692	     -0.00401676	      0.67455657	     -1.17818515	     90.42275483	    -40.60692570	     -0.81514739	     71.82484965	      0.00000000	      9.53395470	      1.25358011	      6.02231863	      0.00000000	      0.00000000	     89.36675040	    -24.46431926	      1.08422678	     67.64011694	      0.00000000	     -9.72289432	      1.18054275	      5.50120293	      0.00000000	      0.00000000
